<mxfile host="app.diagrams.net" agent="Mozilla/5.0 (Windows NT 10.0; Win64; x64; rv:133.0) Gecko/20100101 Firefox/133.0" version="25.0.3">
  <diagram name="Seite-1" id="Mce5Rl9_BJZwAG-8S768">
    <mxGraphModel dx="1195" dy="652" grid="1" gridSize="10" guides="1" tooltips="1" connect="1" arrows="1" fold="1" page="1" pageScale="1" pageWidth="827" pageHeight="1169" math="0" shadow="0">
      <root>
        <mxCell id="0" />
        <mxCell id="1" parent="0" />
        <mxCell id="V754n1rJTpR-ZUQwzk7--13" style="edgeStyle=orthogonalEdgeStyle;rounded=0;orthogonalLoop=1;jettySize=auto;html=1;entryX=0.5;entryY=0;entryDx=0;entryDy=0;" edge="1" parent="1" source="V754n1rJTpR-ZUQwzk7--11" target="V754n1rJTpR-ZUQwzk7--12">
          <mxGeometry relative="1" as="geometry" />
        </mxCell>
        <mxCell id="V754n1rJTpR-ZUQwzk7--11" value="Connection" style="rounded=1;whiteSpace=wrap;html=1;" vertex="1" parent="1">
          <mxGeometry x="320" y="80" width="120" height="30" as="geometry" />
        </mxCell>
        <mxCell id="V754n1rJTpR-ZUQwzk7--15" style="edgeStyle=orthogonalEdgeStyle;rounded=0;orthogonalLoop=1;jettySize=auto;html=1;entryX=0.5;entryY=0;entryDx=0;entryDy=0;" edge="1" parent="1" source="V754n1rJTpR-ZUQwzk7--12" target="V754n1rJTpR-ZUQwzk7--14">
          <mxGeometry relative="1" as="geometry" />
        </mxCell>
        <mxCell id="V754n1rJTpR-ZUQwzk7--12" value="Login request" style="rounded=1;whiteSpace=wrap;html=1;" vertex="1" parent="1">
          <mxGeometry x="320" y="140" width="120" height="30" as="geometry" />
        </mxCell>
        <mxCell id="V754n1rJTpR-ZUQwzk7--17" style="edgeStyle=orthogonalEdgeStyle;rounded=0;orthogonalLoop=1;jettySize=auto;html=1;entryX=0.5;entryY=0;entryDx=0;entryDy=0;" edge="1" parent="1" source="V754n1rJTpR-ZUQwzk7--14" target="V754n1rJTpR-ZUQwzk7--16">
          <mxGeometry relative="1" as="geometry" />
        </mxCell>
        <mxCell id="V754n1rJTpR-ZUQwzk7--14" value="Session Guid" style="rounded=1;whiteSpace=wrap;html=1;" vertex="1" parent="1">
          <mxGeometry x="320" y="200" width="120" height="30" as="geometry" />
        </mxCell>
        <mxCell id="V754n1rJTpR-ZUQwzk7--19" style="edgeStyle=orthogonalEdgeStyle;rounded=0;orthogonalLoop=1;jettySize=auto;html=1;entryX=0;entryY=0.5;entryDx=0;entryDy=0;" edge="1" parent="1" source="V754n1rJTpR-ZUQwzk7--16" target="V754n1rJTpR-ZUQwzk7--18">
          <mxGeometry relative="1" as="geometry" />
        </mxCell>
        <mxCell id="V754n1rJTpR-ZUQwzk7--24" value="Yes" style="edgeLabel;html=1;align=center;verticalAlign=middle;resizable=0;points=[];" vertex="1" connectable="0" parent="V754n1rJTpR-ZUQwzk7--19">
          <mxGeometry x="-0.0957" y="-2" relative="1" as="geometry">
            <mxPoint as="offset" />
          </mxGeometry>
        </mxCell>
        <mxCell id="V754n1rJTpR-ZUQwzk7--39" style="edgeStyle=orthogonalEdgeStyle;rounded=0;orthogonalLoop=1;jettySize=auto;html=1;entryX=0.5;entryY=0;entryDx=0;entryDy=0;" edge="1" parent="1" source="V754n1rJTpR-ZUQwzk7--16" target="V754n1rJTpR-ZUQwzk7--38">
          <mxGeometry relative="1" as="geometry" />
        </mxCell>
        <mxCell id="V754n1rJTpR-ZUQwzk7--40" value="No" style="edgeLabel;html=1;align=center;verticalAlign=middle;resizable=0;points=[];" vertex="1" connectable="0" parent="V754n1rJTpR-ZUQwzk7--39">
          <mxGeometry x="-0.6835" relative="1" as="geometry">
            <mxPoint y="2" as="offset" />
          </mxGeometry>
        </mxCell>
        <mxCell id="V754n1rJTpR-ZUQwzk7--16" value="Has&lt;div&gt;request permission?&lt;/div&gt;&lt;div&gt;&lt;br&gt;&lt;/div&gt;" style="rhombus;whiteSpace=wrap;html=1;" vertex="1" parent="1">
          <mxGeometry x="310" y="260" width="140" height="80" as="geometry" />
        </mxCell>
        <mxCell id="V754n1rJTpR-ZUQwzk7--30" style="edgeStyle=orthogonalEdgeStyle;rounded=0;orthogonalLoop=1;jettySize=auto;html=1;entryX=0.5;entryY=0;entryDx=0;entryDy=0;" edge="1" parent="1" source="V754n1rJTpR-ZUQwzk7--18" target="V754n1rJTpR-ZUQwzk7--28">
          <mxGeometry relative="1" as="geometry" />
        </mxCell>
        <mxCell id="V754n1rJTpR-ZUQwzk7--47" style="edgeStyle=orthogonalEdgeStyle;rounded=0;orthogonalLoop=1;jettySize=auto;html=1;entryX=1;entryY=0.5;entryDx=0;entryDy=0;" edge="1" parent="1" source="V754n1rJTpR-ZUQwzk7--18" target="V754n1rJTpR-ZUQwzk7--21">
          <mxGeometry relative="1" as="geometry">
            <Array as="points">
              <mxPoint x="660" y="489" />
            </Array>
          </mxGeometry>
        </mxCell>
        <mxCell id="V754n1rJTpR-ZUQwzk7--48" value="Multicast request" style="edgeLabel;html=1;align=center;verticalAlign=middle;resizable=0;points=[];" vertex="1" connectable="0" parent="V754n1rJTpR-ZUQwzk7--47">
          <mxGeometry x="0.4756" relative="1" as="geometry">
            <mxPoint as="offset" />
          </mxGeometry>
        </mxCell>
        <mxCell id="V754n1rJTpR-ZUQwzk7--18" value="Send emergency request" style="rounded=1;whiteSpace=wrap;html=1;" vertex="1" parent="1">
          <mxGeometry x="600" y="285" width="120" height="30" as="geometry" />
        </mxCell>
        <mxCell id="V754n1rJTpR-ZUQwzk7--31" style="edgeStyle=orthogonalEdgeStyle;rounded=0;orthogonalLoop=1;jettySize=auto;html=1;entryX=0;entryY=0.5;entryDx=0;entryDy=0;" edge="1" parent="1" source="V754n1rJTpR-ZUQwzk7--21" target="V754n1rJTpR-ZUQwzk7--28">
          <mxGeometry relative="1" as="geometry">
            <Array as="points">
              <mxPoint x="380" y="569.38" />
            </Array>
          </mxGeometry>
        </mxCell>
        <mxCell id="V754n1rJTpR-ZUQwzk7--32" value="&lt;div&gt;Send request accept&lt;/div&gt;" style="edgeLabel;html=1;align=center;verticalAlign=middle;resizable=0;points=[];" vertex="1" connectable="0" parent="V754n1rJTpR-ZUQwzk7--31">
          <mxGeometry x="0.0982" y="-2" relative="1" as="geometry">
            <mxPoint x="-92" y="-37" as="offset" />
          </mxGeometry>
        </mxCell>
        <mxCell id="V754n1rJTpR-ZUQwzk7--21" value="&lt;div&gt;Wait for request...&lt;/div&gt;" style="rounded=1;whiteSpace=wrap;html=1;" vertex="1" parent="1">
          <mxGeometry x="320" y="474.38" width="120" height="30" as="geometry" />
        </mxCell>
        <mxCell id="V754n1rJTpR-ZUQwzk7--33" style="edgeStyle=orthogonalEdgeStyle;rounded=0;orthogonalLoop=1;jettySize=auto;html=1;entryX=1;entryY=0.5;entryDx=0;entryDy=0;" edge="1" parent="1" source="V754n1rJTpR-ZUQwzk7--28" target="V754n1rJTpR-ZUQwzk7--18">
          <mxGeometry relative="1" as="geometry">
            <Array as="points">
              <mxPoint x="790" y="569" />
              <mxPoint x="790" y="300" />
            </Array>
          </mxGeometry>
        </mxCell>
        <mxCell id="V754n1rJTpR-ZUQwzk7--37" value="&lt;div&gt;Accept recieved&lt;/div&gt;" style="edgeLabel;html=1;align=center;verticalAlign=middle;resizable=0;points=[];" vertex="1" connectable="0" parent="V754n1rJTpR-ZUQwzk7--33">
          <mxGeometry x="0.0721" y="-3" relative="1" as="geometry">
            <mxPoint x="-3" y="14" as="offset" />
          </mxGeometry>
        </mxCell>
        <mxCell id="V754n1rJTpR-ZUQwzk7--36" style="edgeStyle=orthogonalEdgeStyle;rounded=0;orthogonalLoop=1;jettySize=auto;html=1;entryX=0;entryY=0.5;entryDx=0;entryDy=0;" edge="1" parent="1" source="V754n1rJTpR-ZUQwzk7--28" target="V754n1rJTpR-ZUQwzk7--21">
          <mxGeometry relative="1" as="geometry">
            <Array as="points">
              <mxPoint x="280" y="569.38" />
              <mxPoint x="280" y="489.38" />
            </Array>
          </mxGeometry>
        </mxCell>
        <mxCell id="V754n1rJTpR-ZUQwzk7--28" value="&lt;div&gt;Wait for accept&lt;/div&gt;" style="rounded=1;whiteSpace=wrap;html=1;" vertex="1" parent="1">
          <mxGeometry x="600" y="554.38" width="120" height="30" as="geometry" />
        </mxCell>
        <mxCell id="V754n1rJTpR-ZUQwzk7--41" style="edgeStyle=orthogonalEdgeStyle;rounded=0;orthogonalLoop=1;jettySize=auto;html=1;entryX=0.5;entryY=0;entryDx=0;entryDy=0;" edge="1" parent="1" source="V754n1rJTpR-ZUQwzk7--38" target="V754n1rJTpR-ZUQwzk7--21">
          <mxGeometry relative="1" as="geometry" />
        </mxCell>
        <mxCell id="V754n1rJTpR-ZUQwzk7--42" value="Yes" style="edgeLabel;html=1;align=center;verticalAlign=middle;resizable=0;points=[];" vertex="1" connectable="0" parent="V754n1rJTpR-ZUQwzk7--41">
          <mxGeometry x="0.4951" y="-3" relative="1" as="geometry">
            <mxPoint x="3" as="offset" />
          </mxGeometry>
        </mxCell>
        <mxCell id="V754n1rJTpR-ZUQwzk7--45" value="No" style="edgeStyle=orthogonalEdgeStyle;rounded=0;orthogonalLoop=1;jettySize=auto;html=1;entryX=1;entryY=0.5;entryDx=0;entryDy=0;" edge="1" parent="1" source="V754n1rJTpR-ZUQwzk7--38" target="V754n1rJTpR-ZUQwzk7--44">
          <mxGeometry relative="1" as="geometry" />
        </mxCell>
        <mxCell id="V754n1rJTpR-ZUQwzk7--38" value="&lt;div&gt;Has&amp;nbsp;&lt;/div&gt;&lt;div&gt;recieve permission?&lt;/div&gt;&lt;div&gt;&lt;br&gt;&lt;/div&gt;" style="rhombus;whiteSpace=wrap;html=1;" vertex="1" parent="1">
          <mxGeometry x="310" y="370" width="140" height="80" as="geometry" />
        </mxCell>
        <mxCell id="V754n1rJTpR-ZUQwzk7--44" value="&lt;div&gt;Await session close...&lt;br&gt;&lt;/div&gt;" style="rounded=1;whiteSpace=wrap;html=1;" vertex="1" parent="1">
          <mxGeometry x="100" y="395" width="120" height="30" as="geometry" />
        </mxCell>
        <mxCell id="V754n1rJTpR-ZUQwzk7--46" value="After this statement it should be empirically understood that all parties are also awaiting a session close, event if not specifically defined" style="text;html=1;align=center;verticalAlign=middle;whiteSpace=wrap;rounded=0;" vertex="1" parent="1">
          <mxGeometry x="450" y="395" width="170" height="30" as="geometry" />
        </mxCell>
      </root>
    </mxGraphModel>
  </diagram>
</mxfile>
